<?xml version="1.0" encoding="utf-8"?>
<!-- Generator: Adobe Illustrator 25.3.1, SVG Export Plug-In . SVG Version: 6.00 Build 0)  -->
<svg version="1.1" id="Layer_1" xmlns="http://www.w3.org/2000/svg" xmlns:xlink="http://www.w3.org/1999/xlink" x="0px" y="0px"
	 viewBox="0 0 50 50" style="enable-background:new 0 0 50 50;" xml:space="preserve">
<style type="text/css">
	.st0{fill:url(#SVGID_1_);}
	.st1{fill:url(#SVGID_2_);}
	.st2{fill:url(#SVGID_3_);}
	.st3{fill:url(#SVGID_4_);}
</style>
<g id="Layer_2_1_">
	<g id="OBJECTS">
		
			<linearGradient id="SVGID_1_" gradientUnits="userSpaceOnUse" x1="29.0597" y1="35.4969" x2="38.069" y2="35.4969" gradientTransform="matrix(1 0 0 -1 0 51.88)">
			<stop  offset="0" style="stop-color:#006A73"/>
			<stop  offset="1" style="stop-color:#05F26C"/>
		</linearGradient>
		<path class="st0" d="M35.4,20.7l1.4-1.4c1.6-1.6,1.6-4.3,0-5.9c0,0,0,0,0,0l-1.2-1.2l-6.6,6.6L35.4,20.7z"/>
		
			<linearGradient id="SVGID_2_" gradientUnits="userSpaceOnUse" x1="22.9101" y1="32.5788" x2="38.069" y2="32.5788" gradientTransform="matrix(1 0 0 -1 0 51.88)">
			<stop  offset="0" style="stop-color:#006A73"/>
			<stop  offset="1" style="stop-color:#05F26C"/>
		</linearGradient>
		<path class="st1" d="M35.6,12.1l1.2,1.2c1.6,1.6,1.6,4.3,0,5.9c0,0,0,0,0,0l-5.5,5.5c-2.3,2.3-6.1,2.3-8.4,0l0,0L35.6,12.1z"/>
		
			<linearGradient id="SVGID_3_" gradientUnits="userSpaceOnUse" x1="7.5" y1="26.88" x2="42.5" y2="26.88" gradientTransform="matrix(1 0 0 -1 0 51.88)">
			<stop  offset="0" style="stop-color:#006A73"/>
			<stop  offset="1" style="stop-color:#05F26C"/>
		</linearGradient>
		<path class="st2" d="M38.2,14.7l-2.6-2.6l-4.2,4.2l2.6,2.6c3.4,3.4,3.4,8.8,0,12.2L25,40.1l-9.1-9.1c-3.4-3.4-3.4-8.8,0-12.2
			l9.1-9l2.2,2.2l4.2-4.2L25,1.5L11.8,14.7c-5.7,5.7-5.7,14.9,0,20.6L25,48.5l13.2-13.2C43.9,29.6,43.9,20.4,38.2,14.7z"/>
		
			<linearGradient id="SVGID_4_" gradientUnits="userSpaceOnUse" x1="7.5" y1="26.88" x2="25" y2="26.88" gradientTransform="matrix(1 0 0 -1 0 51.88)">
			<stop  offset="0" style="stop-color:#006A73"/>
			<stop  offset="1" style="stop-color:#05F26C"/>
		</linearGradient>
		<path class="st3" d="M25,40.1l-9.1-9.1c-3.4-3.4-3.4-8.8,0-12.2l9.1-9l0,0V1.5l0,0L11.8,14.7c-5.7,5.7-5.7,14.9,0,20.6L25,48.5
			V40.1z"/>
	</g>
</g>
</svg>
